<svg width="150" height="56" viewBox="0 0 150 56" fill="none" xmlns="http://www.w3.org/2000/svg">
<path d="M14.984 43.22C14.8613 43.2813 14.7693 43.2047 14.708 42.99C14.6467 42.806 14.662 42.6833 14.754 42.622L16.87 41.104C17.2073 40.8587 17.5293 40.5827 17.836 40.276C18.1427 39.9693 18.4493 39.6627 18.756 39.356C19.124 38.9267 19.4767 38.4973 19.814 38.068C20.1513 37.6387 20.4733 37.1787 20.78 36.688C21.0867 36.1973 21.4087 35.7527 21.746 35.354C22.114 34.9247 22.4973 34.5107 22.896 34.112C22.896 33.744 23.0647 33.284 23.402 32.732C23.7393 32.1493 24.1227 31.5513 24.552 30.938C24.9813 30.294 25.3647 29.696 25.702 29.144C26.0393 28.5613 26.208 28.086 26.208 27.718C26.2693 27.626 26.392 27.3653 26.576 26.936C26.76 26.5067 26.9747 26.0313 27.22 25.51C27.4653 24.958 27.6953 24.4827 27.91 24.084C28.1247 23.6547 28.278 23.4247 28.37 23.394C28.6767 22.3207 29.014 21.2473 29.382 20.174C29.7807 19.07 30.21 17.9813 30.67 16.908C31.0993 15.8347 31.5133 14.7613 31.912 13.688C32.3413 12.584 32.7553 11.5107 33.154 10.468C32.97 10.4067 32.7707 10.2993 32.556 10.146C32.372 9.962 32.28 9.76266 32.28 9.548C32.28 9.48666 32.3107 9.39466 32.372 9.272C32.4027 9.24133 32.418 9.21067 32.418 9.18C32.418 9.14933 32.4333 9.11867 32.464 9.088C32.004 8.96533 31.452 8.904 30.808 8.904C30.624 8.84266 30.44 8.78133 30.256 8.72C30.072 8.65867 29.9033 8.59733 29.75 8.536C29.474 8.444 29.1827 8.352 28.876 8.26C28.6 8.168 28.3853 8.122 28.232 8.122C28.2627 8.15267 28.278 8.19866 28.278 8.26C28.2473 8.29067 28.094 8.27533 27.818 8.214C27.2047 7.96866 26.714 7.8 26.346 7.708C26.0087 7.616 25.6867 7.55466 25.38 7.524C25.0733 7.46267 24.644 7.386 24.092 7.294C23.0187 7.14067 21.746 7.00267 20.274 6.88C18.802 6.72667 17.284 6.604 15.72 6.512C14.156 6.42 12.684 6.38933 11.304 6.42C9.95467 6.42 8.85067 6.512 7.992 6.696L7.302 6.834C7.17933 6.86467 7.072 6.89533 6.98 6.926C6.888 6.95666 6.78067 7.00266 6.658 7.064C6.50467 7.156 6.336 7.248 6.152 7.34C5.968 7.432 5.784 7.524 5.6 7.616C5.416 7.708 5.232 7.8 5.048 7.892C4.864 7.984 4.69533 8.076 4.542 8.168C4.48067 8.19866 4.37333 8.27533 4.22 8.398C4.09733 8.52067 3.95933 8.674 3.806 8.858C3.49933 9.25666 3.22333 9.53267 2.978 9.686H3.438L2.61 10.652L2.656 10.376L2.472 10.514H2.334C2.30333 10.7287 2.34933 10.9127 2.472 11.066C2.564 11.158 2.64067 11.342 2.702 11.618C2.76333 11.618 2.84 11.6947 2.932 11.848C3.08533 12.1853 3.33067 12.584 3.668 13.044C4.036 13.504 4.43467 13.734 4.864 13.734C4.864 13.734 4.956 13.7647 5.14 13.826C5.20133 13.8567 5.26267 13.8873 5.324 13.918C5.38533 13.9487 5.43133 13.9793 5.462 14.01C5.58467 14.01 5.646 14.0253 5.646 14.056C5.58467 14.1173 5.61533 14.148 5.738 14.148C5.89133 14.148 6.014 14.1327 6.106 14.102C6.16733 14.0713 6.27467 14.056 6.428 14.056C6.52 14.056 6.59667 14.0867 6.658 14.148H6.98C7.47067 14.148 7.992 14.102 8.544 14.01L8.636 14.056V14.01C8.85067 13.918 9.08067 13.872 9.326 13.872C9.602 13.8413 9.86267 13.826 10.108 13.826H10.338C10.43 13.826 10.4913 13.872 10.522 13.964C10.5527 13.9947 10.66 14.01 10.844 14.01C11.1813 14.01 11.396 13.9333 11.488 13.78C11.5187 13.6573 11.626 13.596 11.81 13.596C11.9327 13.596 12.086 13.5653 12.27 13.504C12.454 13.4427 12.592 13.412 12.684 13.412C13.2973 13.412 13.7727 13.3353 14.11 13.182C14.478 12.998 14.8153 12.768 15.122 12.492C15.4593 12.216 15.8733 11.9247 16.364 11.618C16.3947 11.5873 16.4407 11.572 16.502 11.572C16.6553 11.572 16.732 11.6487 16.732 11.802C16.732 11.894 16.6553 11.986 16.502 12.078L16.088 12.354C16.0573 12.4767 15.9807 12.5687 15.858 12.63C15.766 12.6913 15.6587 12.7833 15.536 12.906V12.998C15.536 13.0287 15.49 13.09 15.398 13.182L14.018 13.872C13.006 14.3627 12.04 14.8227 11.12 15.252C10.2307 15.6813 9.20333 15.896 8.038 15.896C7.88467 15.896 7.716 15.9113 7.532 15.942C7.348 15.942 7.17933 15.9573 7.026 15.988C6.87267 16.0187 6.704 16.0493 6.52 16.08C6.336 16.08 6.16733 16.08 6.014 16.08C5.49267 16.08 5.07867 15.9727 4.772 15.758C4.71067 15.758 4.542 15.758 4.266 15.758C4.02067 15.7273 3.88267 15.666 3.852 15.574C3.69867 15.5433 3.45333 15.4207 3.116 15.206C2.77867 14.9913 2.44133 14.7767 2.104 14.562C1.76667 14.3167 1.53667 14.194 1.414 14.194C1.322 14.1327 1.21467 13.9487 1.092 13.642C1 13.3047 0.908 12.952 0.816 12.584C0.724 12.216 0.678 11.9707 0.678 11.848C0.678 11.572 0.785333 11.4493 1 11.48V11.342C1 11.25 0.984667 11.1733 0.954 11.112C0.923333 11.02 0.908 10.9587 0.908 10.928C0.908 10.1307 1.12267 9.456 1.552 8.904C2.012 8.352 2.57933 7.846 3.254 7.386C3.92867 6.89533 4.588 6.38933 5.232 5.868H5.094C5.21667 5.776 5.40067 5.638 5.646 5.454C5.922 5.23933 6.198 5.05533 6.474 4.902C6.75 4.718 6.934 4.626 7.026 4.626C7.17933 4.626 7.31733 4.68733 7.44 4.81C7.56267 4.93266 7.70067 4.994 7.854 4.994C7.88467 4.994 7.91533 4.97867 7.946 4.948H7.992V4.718C7.992 4.41133 8.09933 4.258 8.314 4.258H8.912C9.06533 4.258 9.24933 4.258 9.464 4.258C9.67867 4.22733 9.86267 4.18133 10.016 4.12V3.982C10.2613 3.64466 10.66 3.476 11.212 3.476C11.764 3.44533 12.27 3.35333 12.73 3.2C12.822 3.16933 13.006 3.154 13.282 3.154C13.4047 3.154 13.512 3.154 13.604 3.154C13.7267 3.154 13.8493 3.16933 13.972 3.2C14.0947 3.23067 14.202 3.246 14.294 3.246C14.4167 3.246 14.5393 3.26133 14.662 3.292L14.754 3.384L14.662 3.43L14.938 3.568V3.292C15.1527 3.35333 15.3673 3.39933 15.582 3.43C15.7967 3.46067 16.0113 3.476 16.226 3.476C16.3487 3.476 16.4867 3.46067 16.64 3.43C16.7933 3.39933 16.8853 3.30733 16.916 3.154H17.054L17.008 3.292H17.192C17.3147 3.41467 17.5293 3.476 17.836 3.476C18.02 3.476 18.158 3.46067 18.25 3.43H18.664L18.618 3.568L18.48 3.706L18.756 3.844C18.7867 3.78267 18.802 3.73666 18.802 3.706C18.802 3.64467 18.8173 3.59867 18.848 3.568C18.9093 3.476 18.986 3.43 19.078 3.43C19.17 3.43 19.262 3.43 19.354 3.43C19.446 3.43 19.538 3.44533 19.63 3.476C19.6913 3.50666 19.768 3.522 19.86 3.522C19.952 3.522 20.044 3.53733 20.136 3.568L20.09 3.706H19.814C19.6913 3.706 19.63 3.752 19.63 3.844C19.9673 3.87467 20.3047 3.92067 20.642 3.982C20.9793 4.04333 21.3013 4.12 21.608 4.212C22.2213 4.42666 22.8807 4.534 23.586 4.534L23.31 4.258C23.7393 4.31933 24.276 4.442 24.92 4.626C25.564 4.77933 26.1927 4.91733 26.806 5.04C27.45 5.16266 27.9253 5.224 28.232 5.224L28.278 5.086H28.876V5.224C29.6733 5.37733 30.4707 5.546 31.268 5.73C32.096 5.88333 32.9087 6.08267 33.706 6.328C33.8593 5.80667 34.0127 5.316 34.166 4.856C34.35 4.36533 34.534 3.87466 34.718 3.384C34.8407 3.108 34.9327 2.80133 34.994 2.464C35.6073 2.49466 36.236 2.57133 36.88 2.694C37.5547 2.81666 38.122 3.04666 38.582 3.384C39.042 3.69067 39.272 4.19667 39.272 4.902C39.272 5.20867 39.1647 5.65333 38.95 6.236C38.766 6.788 38.6127 7.21733 38.49 7.524L40.468 8.122V8.26L40.882 8.122V8.03C42.0167 8.24467 43.044 8.41333 43.964 8.536C44.884 8.628 45.9267 8.674 47.092 8.674V8.536C47.0307 8.47466 47 8.41333 47 8.352C47 8.26 47.046 8.214 47.138 8.214H47.276C47.3067 8.24466 47.3373 8.26 47.368 8.26H47.644C47.7973 8.26 47.9353 8.26 48.058 8.26C48.2113 8.26 48.3493 8.27533 48.472 8.306C48.5947 8.33667 48.7173 8.36733 48.84 8.398C48.9933 8.398 49.1313 8.398 49.254 8.398C49.8673 8.398 50.4193 8.214 50.91 7.846C51.4007 7.478 51.646 7.064 51.646 6.604C51.646 6.35867 51.5693 6.08267 51.416 5.776C51.232 5.53067 51.14 5.33133 51.14 5.178C51.14 5.11666 51.186 5.086 51.278 5.086C51.3393 5.086 51.4313 5.11666 51.554 5.178C51.6767 5.23933 51.7533 5.30066 51.784 5.362L51.922 5.546C51.9833 5.66866 52.0293 5.74533 52.06 5.776C52.1827 6.02133 52.4127 6.26666 52.75 6.512C53.0873 6.75733 53.2713 7.018 53.302 7.294L53.348 7.892C52.796 9.088 51.9833 10.0233 50.91 10.698C49.8367 11.342 48.4107 11.664 46.632 11.664C44.884 11.664 43.2127 11.526 41.618 11.25C40.0233 10.9433 38.582 10.6213 37.294 10.284C37.1713 10.5293 37.0027 10.882 36.788 11.342C36.5733 11.7713 36.3433 12.2007 36.098 12.63C35.8833 13.0593 35.684 13.3813 35.5 13.596C35.408 14.0253 35.2547 14.4547 35.04 14.884C34.8253 15.3133 34.6107 15.7273 34.396 16.126L32.878 19.07L31.314 22.014C31.222 22.0447 31.176 22.1213 31.176 22.244L31.268 22.336L30.808 23.164C30.6547 23.4093 30.5013 23.7007 30.348 24.038L29.934 25.05C29.8727 25.234 29.796 25.418 29.704 25.602C29.6427 25.786 29.566 25.9547 29.474 26.108C29.4127 26.2 29.336 26.2767 29.244 26.338C29.1213 26.4607 29.0447 26.5527 29.014 26.614C28.7993 26.89 28.6 27.1813 28.416 27.488C28.2627 27.7947 28.1247 28.1167 28.002 28.454C27.8793 28.7913 27.726 29.1287 27.542 29.466C27.3887 29.7727 27.2353 30.0793 27.082 30.386C25.8247 32.594 24.414 34.7253 22.85 36.78C21.3167 38.8347 19.4613 40.552 17.284 41.932C17.1613 41.9933 17.008 42.0853 16.824 42.208C16.64 42.3613 16.4253 42.5147 16.18 42.668C15.6587 43.0053 15.26 43.1893 14.984 43.22ZM23.31 4.258L23.172 4.12H23.31V4.258ZM29.244 5.592L29.29 5.454C29.1367 5.454 29.0293 5.42333 28.968 5.362C29.0293 5.51533 29.1213 5.592 29.244 5.592ZM38.72 8.076L38.398 7.708L38.306 7.938C38.3673 7.99933 38.444 8.03 38.536 8.03C38.628 8.03 38.6893 8.04533 38.72 8.076ZM6.382 15.252C6.842 15.252 7.27133 15.16 7.67 14.976C7.88467 14.9147 8.084 14.8533 8.268 14.792C8.48267 14.7 8.69733 14.6387 8.912 14.608L10.246 14.332H9.924C9.80133 14.332 9.72467 14.3167 9.694 14.286L9.602 14.332H9.464V14.24C9.40267 14.24 9.29533 14.2553 9.142 14.286C9.01933 14.286 8.88133 14.3013 8.728 14.332C8.636 14.3627 8.544 14.378 8.452 14.378C8.36 14.378 8.268 14.3933 8.176 14.424C7.93067 14.5467 7.63933 14.608 7.302 14.608C7.27133 14.7 7.17933 14.746 7.026 14.746C6.87267 14.746 6.71933 14.746 6.566 14.746C6.44333 14.7153 6.35133 14.6387 6.29 14.516L6.198 14.562H5.968C5.90667 14.5927 5.83 14.608 5.738 14.608C5.646 14.608 5.49267 14.5927 5.278 14.562C5.094 14.5313 4.97133 14.4853 4.91 14.424C4.78733 14.424 4.66467 14.3627 4.542 14.24C4.14333 14.24 3.76 14.0867 3.392 13.78C3.024 13.4427 2.748 13.1207 2.564 12.814C2.564 13.0593 2.54867 13.2127 2.518 13.274L1.966 13.136L1.92 13.412L2.518 13.504L2.656 13.412H2.84C2.99333 13.5653 3.13133 13.7033 3.254 13.826C3.37667 13.918 3.51467 14.0253 3.668 14.148C3.72933 14.148 3.79067 14.1787 3.852 14.24C4.09733 14.4547 4.496 14.6847 5.048 14.93C5.63067 15.1447 6.07533 15.252 6.382 15.252ZM11.764 43.818C10.2 43.818 8.83533 43.4653 7.67 42.76C6.50467 42.0547 5.6 41.0887 4.956 39.862C4.312 38.6047 3.99 37.2093 3.99 35.676C3.99 34.48 4.22 33.3607 4.68 32.318C4.92533 31.7967 5.15533 31.2753 5.37 30.754C5.58467 30.202 5.79933 29.6653 6.014 29.144L5.83 28.73C6.04467 28.5153 6.22867 28.2547 6.382 27.948L6.796 27.028C6.91867 26.7827 7.05667 26.5527 7.21 26.338C7.394 26.1233 7.59333 25.9087 7.808 25.694C8.23733 25.2647 8.55933 24.8047 8.774 24.314L9.096 24.13C9.28 23.8233 9.602 23.4093 10.062 22.888C10.522 22.3667 11.0127 21.8607 11.534 21.37C12.0553 20.8487 12.4847 20.4653 12.822 20.22C12.9447 20.1587 13.052 20.128 13.144 20.128H13.374C13.4353 19.944 13.4507 19.8367 13.42 19.806C13.3587 19.7447 13.4507 19.6373 13.696 19.484C13.788 19.4533 13.9107 19.3613 14.064 19.208C14.1253 19.1467 14.1867 19.1007 14.248 19.07C14.3093 19.0393 14.3553 19.0087 14.386 18.978C14.6313 18.8247 14.8307 18.8093 14.984 18.932C15.1373 19.0547 15.1067 19.162 14.892 19.254C14.1253 19.806 13.3433 20.588 12.546 21.6C11.7487 22.612 10.982 23.762 10.246 25.05C9.51 26.3073 8.85067 27.626 8.268 29.006C7.68533 30.3553 7.22533 31.6587 6.888 32.916C6.55067 34.1733 6.382 35.2773 6.382 36.228C6.382 38.2827 6.82667 39.908 7.716 41.104C8.60533 42.3307 10.016 42.944 11.948 42.944C12.1013 42.944 12.2547 42.944 12.408 42.944C12.592 42.944 12.776 42.9593 12.96 42.99C13.1133 42.99 13.2667 42.99 13.42 42.99C13.604 42.99 13.7573 42.9747 13.88 42.944C14.064 42.7907 14.1867 42.852 14.248 43.128C14.3093 43.404 14.2173 43.542 13.972 43.542C13.5733 43.634 13.2053 43.6953 12.868 43.726C12.5613 43.7873 12.1933 43.818 11.764 43.818ZM42.8675 36.642C42.7755 36.642 42.6989 36.6113 42.6375 36.55C42.6069 36.5807 42.5149 36.596 42.3615 36.596C41.9629 36.596 41.5642 36.32 41.1655 35.768C40.7669 35.216 40.5675 34.7407 40.5675 34.342C40.5675 33.6367 40.7515 32.9007 41.1195 32.134L42.1315 30.018C42.3155 29.65 42.4075 29.4047 42.4075 29.282C42.4075 29.282 42.3309 29.1593 42.1775 28.914L41.9475 28.684C41.8862 28.6227 41.8249 28.5767 41.7635 28.546C41.7329 28.4847 41.6869 28.4233 41.6255 28.362C41.4415 28.1473 41.2575 27.902 41.0735 27.626C40.8895 27.35 40.7669 27.028 40.7055 26.66C40.6442 26.7213 40.5062 26.9513 40.2915 27.35C40.0769 27.7487 39.8622 28.132 39.6475 28.5C39.4329 28.868 39.2642 29.052 39.1415 29.052C39.0802 29.052 39.0342 29.0367 39.0035 29.006C38.9729 28.9753 38.9269 28.96 38.8655 28.96C38.8042 28.96 38.7275 29.0827 38.6355 29.328C38.5129 29.512 38.3442 29.788 38.1295 30.156C37.9149 30.4933 37.7002 30.8153 37.4855 31.122C37.2709 31.4287 37.0715 31.582 36.8875 31.582C36.7649 31.582 36.7035 31.5207 36.7035 31.398C36.7035 31.306 36.7649 31.1373 36.8875 30.892C37.0102 30.616 37.1482 30.3553 37.3015 30.11C37.4855 29.834 37.6082 29.6653 37.6695 29.604C38.0375 29.0827 38.3442 28.6227 38.5895 28.224C38.8349 27.8253 39.0649 27.4113 39.2795 26.982C39.4635 26.5833 39.6475 26.1847 39.8315 25.786C40.0462 25.3567 40.2915 24.8813 40.5675 24.36C40.6289 23.9307 40.7209 23.486 40.8435 23.026C41.3035 21.646 41.8402 20.45 42.4535 19.438C43.0975 18.3953 43.8949 17.3373 44.8455 16.264C45.0602 16.0493 45.3055 15.7887 45.5815 15.482C45.8882 15.1447 46.1949 14.838 46.5015 14.562C46.8082 14.286 47.0689 14.148 47.2835 14.148C47.4675 14.148 47.6822 14.2247 47.9275 14.378C48.0502 14.4393 48.1575 14.5007 48.2495 14.562C48.3415 14.6233 48.4335 14.6847 48.5255 14.746L49.4455 15.252C49.7829 15.436 49.9515 15.7273 49.9515 16.126C49.9515 16.2793 49.9362 16.3713 49.9055 16.402C49.8135 16.7393 49.5069 17.1073 48.9855 17.506C48.4949 17.874 47.9429 18.2573 47.3295 18.656C46.7469 19.0547 46.2715 19.438 45.9035 19.806C45.3515 20.2967 44.8762 20.8487 44.4775 21.462C44.0789 22.0753 43.7109 22.7347 43.3735 23.44C43.3429 23.5627 43.2969 23.67 43.2355 23.762C43.2049 23.854 43.1742 23.9613 43.1435 24.084C43.1129 24.2987 43.0362 24.544 42.9135 24.82C42.8829 24.8813 42.8522 24.958 42.8215 25.05C42.7909 25.1113 42.7755 25.188 42.7755 25.28C42.7755 25.4333 42.7909 25.5407 42.8215 25.602C42.8522 25.694 42.8675 25.8167 42.8675 25.97C42.8675 26.154 42.8522 26.2767 42.8215 26.338C42.7909 26.43 42.7755 26.568 42.7755 26.752C42.7755 27.0893 42.9442 27.4113 43.2815 27.718C43.6189 27.994 43.9409 28.3007 44.2475 28.638C44.5849 28.9753 44.7535 29.3587 44.7535 29.788C44.7535 30.156 44.6309 30.6007 44.3855 31.122C44.1402 31.6433 43.8642 32.1647 43.5575 32.686C43.2509 33.2073 43.0055 33.6827 42.8215 34.112L42.5915 34.664L42.4995 34.986C42.4995 35.0473 42.5149 35.078 42.5455 35.078L42.6375 35.216C42.9135 35.216 43.2969 35.0167 43.7875 34.618C44.2782 34.2193 44.7689 33.79 45.2595 33.33C45.7502 32.8393 46.0875 32.502 46.2715 32.318C46.6395 31.9193 46.9769 31.5053 47.2835 31.076C47.5902 30.616 47.8815 30.156 48.1575 29.696C48.2189 29.5427 48.3109 29.374 48.4335 29.19C48.5869 28.9753 48.7402 28.868 48.8935 28.868C49.0775 28.868 49.1695 28.9753 49.1695 29.19C49.1695 29.374 49.0009 29.742 48.6635 30.294C48.3569 30.8153 48.0195 31.3367 47.6515 31.858C47.2835 32.3793 47.0229 32.7167 46.8695 32.87L46.8235 32.962V33.008C46.7315 33.2227 46.5935 33.3607 46.4095 33.422C46.3789 33.4527 46.3329 33.5293 46.2715 33.652C46.2102 33.7747 46.1642 33.8513 46.1335 33.882C46.1335 33.9433 46.0875 34.0047 45.9955 34.066L45.8115 34.112C45.7809 34.2347 45.6889 34.342 45.5355 34.434L45.2595 34.71C45.2289 34.71 45.2135 34.7253 45.2135 34.756C45.2135 34.7867 45.1982 34.802 45.1675 34.802C45.1369 34.986 45.0142 35.078 44.7995 35.078C44.7382 35.2007 44.6462 35.354 44.5235 35.538C44.4315 35.722 44.3089 35.814 44.1555 35.814C44.0022 36.0287 43.8029 36.136 43.5575 36.136C43.5269 36.1667 43.5115 36.2127 43.5115 36.274C43.5115 36.3047 43.4962 36.3353 43.4655 36.366C43.4042 36.5193 43.2662 36.596 43.0515 36.596C43.0209 36.6267 42.9595 36.642 42.8675 36.642ZM58.7613 40.92C58.4546 40.552 58.1326 40.2607 57.7953 40.046C57.4886 39.862 57.2126 39.6473 56.9673 39.402C56.7526 39.126 56.6453 38.758 56.6453 38.298H56.7373L56.5993 37.608L56.4613 37.746L56.3693 37.884C56.3999 37.7613 56.4306 37.654 56.4613 37.562C56.4919 37.4393 56.5226 37.332 56.5533 37.24C56.5839 37.0867 56.5993 36.9487 56.5993 36.826C56.6299 36.6727 56.6453 36.5193 56.6453 36.366C56.6453 35.9673 56.6759 35.584 56.7373 35.216C56.7986 34.8173 56.8753 34.434 56.9673 34.066C57.0593 33.698 57.1359 33.33 57.1973 32.962C57.2893 32.5633 57.3659 32.1493 57.4273 31.72H57.5193L58.0253 30.524L57.9793 30.294C57.9179 30.4167 57.8719 30.4933 57.8413 30.524C57.8106 30.5853 57.7646 30.6467 57.7033 30.708C57.3659 31.1987 56.9519 31.7967 56.4613 32.502C55.9706 33.1767 55.4799 33.8207 54.9893 34.434C54.4986 35.0167 54.0539 35.4307 53.6553 35.676C53.4099 35.8293 53.2413 35.952 53.1493 36.044C53.0573 36.1053 52.9499 36.2893 52.8273 36.596C52.5206 36.6573 52.2139 36.8567 51.9073 37.194C51.6313 37.5313 51.3553 37.8533 51.0793 38.16C50.8033 38.4667 50.4966 38.6353 50.1593 38.666L50.1133 38.896C49.9293 39.08 49.6839 39.218 49.3773 39.31C49.0706 39.3713 48.7946 39.4173 48.5493 39.448C47.8746 39.2027 47.2153 38.8653 46.5713 38.436C45.9273 38.0067 45.6053 37.4087 45.6053 36.642C45.6053 36.3353 45.6513 36.0747 45.7433 35.86H45.7893V35.63C45.7279 35.538 45.7126 35.4153 45.7433 35.262C45.7739 35.1087 45.8199 35.032 45.8813 35.032L45.9273 35.078C45.9886 34.986 46.0193 34.8327 46.0193 34.618C46.0499 34.4033 46.0653 34.2653 46.0653 34.204L46.1573 34.112C46.1573 33.8973 46.2646 33.6673 46.4793 33.422C46.6939 33.1767 46.8933 32.9467 47.0773 32.732C47.2919 32.5173 47.3993 32.364 47.3993 32.272C47.4299 32.2413 47.4453 32.1953 47.4453 32.134C47.4453 31.9807 47.4299 31.858 47.3993 31.766C47.3379 31.6433 47.3226 31.536 47.3533 31.444V31.26H47.5373L47.6753 31.03V30.938C47.5833 30.8767 47.5373 30.8307 47.5373 30.8V30.708C47.5373 30.616 47.5679 30.5393 47.6293 30.478L47.7673 30.34V30.294C47.7673 30.2633 47.7826 30.2327 47.8133 30.202V30.11L48.0433 29.88C48.1659 29.7573 48.2579 29.6807 48.3193 29.65C48.5646 29.3127 48.7639 29.006 48.9173 28.73H49.1013L49.1473 28.776C49.1166 28.7147 49.0859 28.6687 49.0553 28.638C49.0553 28.6073 49.0553 28.5767 49.0553 28.546C49.0553 28.3007 49.2546 27.948 49.6533 27.488C50.0826 27.028 50.5886 26.5373 51.1713 26.016C51.7539 25.464 52.3213 24.958 52.8733 24.498C53.4253 24.0073 53.8546 23.624 54.1613 23.348V23.118H54.2533C54.3759 23.0567 54.4986 22.9647 54.6213 22.842C54.7746 22.7193 54.9279 22.5967 55.0813 22.474C55.3879 22.1673 55.6486 21.9987 55.8633 21.968L55.9553 21.738L56.2313 21.692C56.2619 21.6613 56.2926 21.6307 56.3233 21.6C56.3539 21.5693 56.3846 21.5387 56.4153 21.508C56.4766 21.4773 56.5226 21.462 56.5533 21.462C56.5839 21.462 56.6146 21.4467 56.6453 21.416L56.6913 21.37L56.7833 21.324V21.278C56.7833 21.2473 56.7986 21.2167 56.8293 21.186L57.6573 20.864L57.7493 20.91L58.3933 20.634L58.5313 20.496H58.5773L59.1753 20.45L59.4973 20.266L59.5893 20.174V20.22L59.6353 20.174L59.7273 20.266C60.0033 20.1433 60.2793 20.082 60.5553 20.082C60.8313 20.082 61.1993 20.128 61.6593 20.22C62.1193 20.312 62.5486 20.4653 62.9473 20.68C63.3459 20.864 63.5759 21.1247 63.6373 21.462V21.554L62.6713 22.106C62.7326 21.9527 62.7786 21.8607 62.8093 21.83V21.784C62.8093 21.7227 62.7479 21.692 62.6253 21.692H62.3493C61.7053 21.692 61.1073 21.876 60.5553 22.244C60.0339 22.612 59.5279 22.98 59.0373 23.348C58.7613 23.4093 58.4699 23.5933 58.1633 23.9C57.8566 24.2067 57.5806 24.4367 57.3353 24.59C56.1393 25.51 55.0506 26.43 54.0693 27.35C53.1186 28.2393 52.2139 29.3127 51.3553 30.57C51.2019 30.8153 51.0026 31.1373 50.7573 31.536C50.5119 31.904 50.2973 32.1647 50.1133 32.318C49.9599 32.594 49.8066 32.87 49.6533 33.146C49.4999 33.422 49.3619 33.7133 49.2393 34.02C49.1166 34.3267 48.9786 34.618 48.8253 34.894C48.6719 35.17 48.5186 35.4307 48.3653 35.676C48.3653 36.044 48.3193 36.3967 48.2273 36.734C48.1659 36.918 48.1353 37.0713 48.1353 37.194C48.1046 37.286 48.0893 37.378 48.0893 37.47C48.0893 37.562 48.0739 37.6387 48.0433 37.7L48.2273 38.114C48.5953 37.9607 49.0399 37.7613 49.5613 37.516C50.0826 37.2707 50.3433 36.9947 50.3433 36.688C50.5273 36.6267 50.6193 36.596 50.6193 36.596H50.7113V36.504C50.7726 36.4427 50.8186 36.412 50.8493 36.412H50.9873L51.1253 36.228V35.998L51.3093 36.182L51.9073 35.584C51.9073 35.4307 52.0146 35.3387 52.2293 35.308C52.7506 34.8787 53.2106 34.3727 53.6093 33.79C53.8239 33.4833 54.0386 33.192 54.2533 32.916C54.4679 32.64 54.6979 32.3793 54.9433 32.134H55.0353L55.6333 31.398L55.5873 31.214L56.2313 30.386H56.3233C56.3846 30.202 56.4766 30.018 56.5993 29.834L56.7373 29.926L57.1053 29.42L57.0593 29.374C57.2126 29.1287 57.3813 28.8833 57.5653 28.638C57.7493 28.3927 57.9333 28.1627 58.1173 27.948C58.3013 27.7027 58.4699 27.4573 58.6233 27.212C58.8073 26.9667 58.9759 26.7213 59.1293 26.476C59.1293 26.2613 59.2059 26.062 59.3593 25.878C59.5126 25.694 59.7119 25.602 59.9573 25.602L60.2793 25.694C60.4019 25.4793 60.4633 25.142 60.4633 24.682C60.6166 24.7127 60.7393 24.682 60.8313 24.59C60.8313 24.59 60.9233 24.5593 61.1073 24.498V24.59L61.4753 24.728C61.5979 24.6667 61.6899 24.636 61.7513 24.636C61.9966 24.636 62.2419 24.7127 62.4873 24.866C62.7326 24.9887 62.9473 25.1267 63.1313 25.28C63.1313 25.3413 63.1466 25.3567 63.1773 25.326C63.1773 25.2953 63.1926 25.28 63.2233 25.28H63.4533C63.8519 25.28 64.0513 25.4487 64.0513 25.786V25.924C63.8979 26.1387 63.7446 26.3533 63.5913 26.568C63.4686 26.7827 63.3459 26.9973 63.2233 27.212C62.9779 27.6413 62.6406 28.0247 62.2113 28.362V28.454L61.4753 29.512L61.5673 29.696L60.0033 31.628L59.8653 31.674C59.8039 31.8887 59.7273 32.1033 59.6353 32.318C59.5739 32.502 59.4973 32.7013 59.4053 32.916L58.9913 33.054C59.0526 33.1153 59.0833 33.192 59.0833 33.284C59.0833 33.4067 59.0986 33.4833 59.1293 33.514C58.8839 33.974 58.6693 34.434 58.4853 34.894C58.3319 35.354 58.2859 35.8447 58.3473 36.366C58.2553 36.4273 58.1939 36.5193 58.1633 36.642C58.1633 36.734 58.1633 36.826 58.1633 36.918C58.1633 37.0713 58.1633 37.2247 58.1633 37.378C58.1939 37.5007 58.2246 37.6387 58.2553 37.792C58.2859 37.9453 58.3166 38.0987 58.3473 38.252C58.3779 38.4053 58.4086 38.5587 58.4393 38.712L58.9453 38.436H59.0833L59.1293 38.39L59.2213 38.252C59.2213 38.16 59.2673 38.0527 59.3593 37.93L59.4513 38.298L59.8653 38.114V38.298H59.9113C60.0339 38.298 60.1259 38.206 60.1873 38.022C60.2486 37.9607 60.3253 37.8993 60.4173 37.838C60.5093 37.746 60.6166 37.7 60.7393 37.7L60.7853 37.608V37.47C60.7853 37.3167 60.8926 37.194 61.1073 37.102C61.2299 37.0713 61.3219 37.0407 61.3833 37.01C61.4753 36.9487 61.5519 36.918 61.6133 36.918H61.6593L62.8553 35.722H62.9013C62.9626 35.63 63.0853 35.5073 63.2693 35.354C63.4839 35.17 63.6679 35.0473 63.8213 34.986V34.664L64.1433 34.572H64.1893L65.2473 33.1C65.2473 33.1307 65.2779 33.146 65.3393 33.146C65.4006 33.146 65.4466 33.1613 65.4773 33.192C65.5079 33.192 65.5539 33.146 65.6153 33.054C65.7073 32.9313 65.7533 32.8393 65.7533 32.778C65.7839 32.7473 65.8146 32.7167 65.8453 32.686C65.9066 32.6247 65.9986 32.5787 66.1213 32.548C66.2133 32.4867 66.2899 32.456 66.3513 32.456C66.4126 32.4253 66.4586 32.3947 66.4893 32.364C66.1519 33.008 65.8453 33.5907 65.5693 34.112C65.3239 34.6333 65.0786 35.1547 64.8333 35.676C64.5879 36.1973 64.3119 36.7033 64.0053 37.194C63.6986 37.654 63.3153 38.114 62.8553 38.574L62.6713 38.39L62.9933 37.976L62.9473 37.7L62.8553 37.746V37.93L62.5333 38.252C62.5026 38.6507 62.3646 38.942 62.1193 39.126H61.9353L61.8433 39.08V39.31L61.5673 39.632L61.4293 39.586L60.8773 40.368V40.23L60.7853 40.276C60.7239 40.3067 60.6626 40.3373 60.6013 40.368C60.5399 40.3987 60.4786 40.4293 60.4173 40.46C60.2333 40.5213 60.1259 40.6133 60.0953 40.736L58.7613 40.92ZM63.3613 37.286C63.3613 37.194 63.3766 37.1327 63.4073 37.102L63.4993 36.964L63.3153 37.01H63.3613L63.2233 37.24L63.2693 37.194L63.3613 37.286ZM66.0814 39.678C65.7747 39.678 65.514 39.5247 65.2994 39.218C65.1154 38.9113 65.0234 38.6353 65.0234 38.39C65.0234 38.298 65.054 38.16 65.1154 37.976C65.146 37.9147 65.1767 37.8533 65.2074 37.792C65.238 37.7307 65.2687 37.6693 65.2994 37.608C65.3607 37.424 65.3914 37.2707 65.3914 37.148C65.3914 37.0253 65.422 36.872 65.4834 36.688C65.5447 36.4733 65.6214 36.2433 65.7134 35.998C65.8054 35.7527 65.9127 35.492 66.0354 35.216C66.0967 35.0933 66.1274 34.986 66.1274 34.894C66.1274 34.7713 66.1427 34.6793 66.1734 34.618H66.1274C66.0354 34.526 65.9894 34.4647 65.9894 34.434L66.0354 34.388C66.0967 34.2347 66.1887 34.0507 66.3114 33.836C66.434 33.6213 66.572 33.4833 66.7254 33.422C66.848 33.1767 67.0167 32.8547 67.2314 32.456C67.446 32.0267 67.63 31.6127 67.7834 31.214C67.9674 30.7847 68.0594 30.4627 68.0594 30.248L68.1514 30.11H68.0594V29.88L68.1514 29.696L67.9214 29.65L68.0594 29.558V29.466C67.998 29.4047 67.9674 29.3433 67.9674 29.282C67.9674 29.2207 67.9827 29.1747 68.0134 29.144L68.1514 28.684L68.2894 28.27C68.1974 28.27 68.1514 28.224 68.1514 28.132C68.1514 27.7947 68.228 27.5033 68.3814 27.258C68.5347 26.89 68.6114 26.568 68.6114 26.292V26.2C68.5807 26.2 68.5654 26.1693 68.5654 26.108L68.5194 25.97V25.878C68.4887 25.878 68.4734 25.8627 68.4734 25.832C68.4734 25.7707 68.5194 25.694 68.6114 25.602L68.8414 25.372C68.7187 25.3107 68.642 25.2647 68.6114 25.234C68.4887 25.1727 68.412 25.1267 68.3814 25.096V25.05C68.32 25.1113 68.2587 25.1113 68.1974 25.05L67.9674 25.004C67.906 25.004 67.7987 24.9887 67.6454 24.958C67.5227 24.8967 67.4614 24.82 67.4614 24.728C67.4614 24.6667 67.5227 24.6053 67.6454 24.544C67.768 24.452 67.86 24.406 67.9214 24.406C68.228 24.4673 68.6574 24.5593 69.2094 24.682C69.7614 24.8047 70.2827 24.958 70.7734 25.142C71.2947 25.2953 71.6014 25.4947 71.6934 25.74C71.7547 25.8627 71.7854 26.016 71.7854 26.2C71.7854 26.4453 71.724 26.752 71.6014 27.12C71.4787 27.488 71.3714 27.764 71.2794 27.948C71.2794 28.0707 71.218 28.132 71.0954 28.132H71.1414C71.08 28.2547 71.0034 28.3927 70.9114 28.546C70.8194 28.6993 70.6967 28.8067 70.5434 28.868L70.5894 29.006C70.6814 29.098 70.7274 29.2207 70.7274 29.374C70.7274 29.558 70.6354 29.6807 70.4514 29.742L70.4054 29.834V30.064C70.4054 30.2787 70.3287 30.4473 70.1754 30.57C70.1447 30.6927 70.068 30.9073 69.9454 31.214C69.8227 31.49 69.7154 31.6587 69.6234 31.72L69.5314 31.95V31.996C69.5314 32.088 69.5007 32.134 69.4394 32.134L69.3934 32.18C69.3014 32.364 69.1787 32.5327 69.0254 32.686C68.964 32.778 68.9027 32.87 68.8414 32.962C68.8107 33.0233 68.826 33.1153 68.8874 33.238H68.8414C68.8414 33.33 68.826 33.376 68.7954 33.376C68.734 33.468 68.6727 33.5753 68.6114 33.698C68.55 33.79 68.4427 33.8667 68.2894 33.928C68.228 34.1427 68.1514 34.3573 68.0594 34.572C67.998 34.7867 67.9214 35.0167 67.8294 35.262C67.6147 35.814 67.4307 36.366 67.2774 36.918C67.4307 37.0713 67.63 37.148 67.8754 37.148C67.9674 37.148 68.0594 37.148 68.1514 37.148C68.2434 37.1173 68.3354 37.0867 68.4274 37.056C68.4887 36.9947 68.5807 36.9487 68.7034 36.918C68.826 36.8567 68.9027 36.8413 68.9334 36.872C69.608 36.6267 70.2367 36.274 70.8194 35.814C71.402 35.3233 71.9694 34.7867 72.5214 34.204L72.5674 34.342C73.426 33.3607 74.2387 32.2107 75.0054 30.892C75.8027 29.5427 76.4467 28.1627 76.9374 26.752C77.428 25.3413 77.6734 24.084 77.6734 22.98C77.6734 22.1213 77.5507 21.6 77.3054 21.416C77.06 21.232 76.5387 21.14 75.7414 21.14C75.5267 21.14 75.3427 21.1247 75.1894 21.094C75.036 21.0327 74.9594 20.864 74.9594 20.588C75.082 20.6187 75.3427 20.588 75.7414 20.496C76.1707 20.3733 76.4467 20.2813 76.5694 20.22C77.52 20.22 78.2714 20.4807 78.8234 21.002C79.3754 21.4927 79.6514 22.2287 79.6514 23.21C79.6514 24.0073 79.4827 24.8507 79.1454 25.74C78.8387 26.5987 78.5167 27.3807 78.1794 28.086C77.9954 28.454 77.6427 28.9907 77.1214 29.696C76.6307 30.3707 76.0787 31.0913 75.4654 31.858C74.852 32.594 74.2847 33.2533 73.7634 33.836C73.242 34.4187 72.644 35.0473 71.9694 35.722C71.2947 36.3967 70.6354 36.9947 69.9914 37.516C69.378 38.0067 68.8567 38.298 68.4274 38.39C68.3354 38.5127 68.1207 38.6813 67.7834 38.896C67.4767 39.08 67.1547 39.264 66.8174 39.448C66.48 39.6013 66.2347 39.678 66.0814 39.678ZM68.4734 33.284C68.4734 33.2533 68.4734 33.238 68.4734 33.238C68.504 33.238 68.5194 33.238 68.5194 33.238L68.5654 33.192L68.5194 33.1C68.4887 33.1613 68.4734 33.2227 68.4734 33.284ZM81.1284 39.586C80.7911 39.586 80.4537 39.54 80.1164 39.448C79.6257 39.264 79.1351 38.758 78.6444 37.93L79.0124 37.838L78.6904 37.608L78.3224 36.458H78.2764C78.2457 36.366 78.2304 36.228 78.2304 36.044V35.722C78.2304 35.5993 78.3071 35.3847 78.4604 35.078C78.6137 34.7713 78.7517 34.48 78.8744 34.204L78.4144 34.296V34.066C78.4451 34.0353 78.4911 33.9587 78.5524 33.836C78.5831 33.744 78.6597 33.6827 78.7824 33.652C78.8131 33.6827 78.8284 33.7287 78.8284 33.79L78.9204 33.698V33.468C78.9204 33.3453 78.9204 33.2227 78.9204 33.1C78.9511 32.9467 79.0124 32.824 79.1044 32.732C79.1044 32.548 79.1197 32.4407 79.1504 32.41L79.1964 32.226H79.2884V32.042L79.5644 31.674C79.7177 31.5207 79.8097 31.444 79.8404 31.444V31.398C79.8097 31.4287 79.7637 31.444 79.7024 31.444C79.5797 31.444 79.5184 31.3827 79.5184 31.26C79.5184 31.2293 79.5337 31.1987 79.5644 31.168V30.938C79.5951 30.9073 79.6104 30.8307 79.6104 30.708C79.6104 30.5853 79.5797 30.4933 79.5184 30.432L79.8404 30.064L80.0244 30.11L79.9784 30.064H80.0704L80.1164 30.018L80.2544 29.512L80.4844 29.88L80.6224 29.098C80.6531 28.9447 80.6837 28.7913 80.7144 28.638C80.7451 28.4847 80.7757 28.3313 80.8064 28.178L81.3124 28.132V27.764H81.1744V27.534L81.4044 27.304V27.35L81.4504 27.304V27.074L81.8644 26.798V26.614C82.0791 26.4913 82.2631 26.2767 82.4164 25.97C82.5084 25.7553 82.7231 25.6173 83.0604 25.556H82.7844L82.8304 25.51L82.6464 25.648V25.28H82.7384L82.7844 25.188H82.8304L82.9224 25.004V24.774C83.1064 24.6513 83.2904 24.498 83.4744 24.314C83.6891 24.13 83.7964 23.9307 83.7964 23.716L83.9804 23.578V23.394L84.1644 23.486L84.7624 22.934V22.75L85.1304 22.52L85.3144 22.244C85.3144 22.152 85.3604 22.106 85.4524 22.106C85.4831 22.106 85.5444 22.1367 85.6364 22.198C85.7591 22.2287 85.8511 22.2593 85.9124 22.29H86.1884C86.6791 22.29 87.1697 22.474 87.6604 22.842C88.1511 23.1793 88.5651 23.5933 88.9024 24.084C89.2397 24.5747 89.4084 25.0653 89.4084 25.556C89.4084 25.7093 89.4544 25.8627 89.5464 26.016C89.5771 26.108 89.5924 26.2 89.5924 26.292C89.6231 26.384 89.6384 26.4913 89.6384 26.614V26.798C89.6384 26.9207 89.6231 26.9973 89.5924 27.028C89.0711 28.2547 88.2584 29.4353 87.1544 30.57C86.0811 31.7047 84.9617 32.594 83.7964 33.238C83.5511 33.3607 83.2751 33.4833 82.9684 33.606C82.6617 33.7287 82.3551 33.79 82.0484 33.79C81.9564 33.79 81.8951 33.7747 81.8644 33.744L81.5424 33.652C81.6344 33.6213 81.7724 33.5447 81.9564 33.422C82.0177 33.3913 82.0791 33.3607 82.1404 33.33C82.2017 33.2993 82.2631 33.2687 82.3244 33.238L82.6004 33.1C82.6617 33.1 82.7077 33.0847 82.7384 33.054L82.6924 33.008C82.6924 32.8853 82.7691 32.824 82.9224 32.824C83.1064 32.7013 83.2597 32.6247 83.3824 32.594L83.8424 32.456C84.0264 32.3947 84.1797 32.3487 84.3024 32.318C84.4557 32.2567 84.5324 32.1647 84.5324 32.042C84.6551 31.95 84.8084 31.7507 84.9924 31.444C85.2071 31.076 85.3604 30.846 85.4524 30.754L85.8664 30.662L86.3264 29.972L86.2344 29.788L86.6024 29.604V29.42H86.6944C87.0317 29.052 87.2924 28.73 87.4764 28.454C87.6911 28.1473 87.8751 27.7487 88.0284 27.258C88.0284 27.1967 88.0744 27.166 88.1664 27.166V27.12C88.3504 26.752 88.4424 26.3993 88.4424 26.062C88.4424 25.326 88.0897 24.958 87.3844 24.958C87.3231 24.958 87.2464 24.9427 87.1544 24.912C87.0317 24.912 86.9704 24.9427 86.9704 25.004H87.2004L86.9704 25.188C86.8171 25.2493 86.6637 25.3413 86.5104 25.464C86.3877 25.5867 86.3264 25.7553 86.3264 25.97H86.1424C86.2037 25.97 86.2497 26.0313 86.2804 26.154C86.0657 26.154 85.9124 26.2153 85.8204 26.338L86.0504 26.476C85.9891 26.5373 85.9124 26.5987 85.8204 26.66C85.7284 26.6907 85.6364 26.7367 85.5444 26.798C85.4524 26.8287 85.3604 26.8747 85.2684 26.936C85.1764 26.9667 85.0997 27.0127 85.0384 27.074C84.7011 27.3193 84.5324 27.5493 84.5324 27.764C84.5324 27.7947 84.5477 27.8253 84.5784 27.856C84.6091 27.8867 84.6397 27.9173 84.6704 27.948C84.7317 27.9787 84.7931 28.0247 84.8544 28.086L84.4864 28.04C84.4864 28.04 84.5017 28.04 84.5324 28.04C84.5631 28.0093 84.5937 27.994 84.6244 27.994C84.5017 27.994 84.4097 28.0093 84.3484 28.04C84.2871 28.04 84.2871 28.0707 84.3484 28.132L84.3944 28.178C84.3944 28.178 84.3791 28.178 84.3484 28.178C84.3484 28.178 84.3484 28.1933 84.3484 28.224C84.3177 28.2547 84.3024 28.2853 84.3024 28.316H84.2104C84.0877 28.4693 83.9651 28.6227 83.8424 28.776C83.7504 28.9293 83.6737 29.0827 83.6124 29.236C83.4897 29.512 83.3211 29.788 83.1064 30.064L83.4284 30.294H83.1064L82.9224 30.478V30.708L82.6464 30.938L82.7384 30.984L82.2784 31.766L82.1404 31.812V32.18L81.6344 32.732L81.6804 32.916H81.5884V33.238C81.3737 33.4527 81.2357 33.7287 81.1744 34.066C81.1437 34.3727 81.0211 34.6793 80.8064 34.986H81.0824L80.7144 35.216V35.354C80.6837 35.3847 80.6684 35.4307 80.6684 35.492C80.6684 35.6147 80.6684 35.722 80.6684 35.814C80.6991 35.906 80.7297 35.998 80.7604 36.09C80.7911 36.182 80.8064 36.274 80.8064 36.366C80.8371 36.458 80.8524 36.5653 80.8524 36.688C80.8524 36.9333 80.9444 37.2553 81.1284 37.654C81.3431 38.022 81.5577 38.206 81.7724 38.206C82.3551 38.206 82.9377 38.0527 83.5204 37.746C84.0724 37.4087 84.6397 37.2247 85.2224 37.194L86.1884 36.412C86.6791 36.0133 87.1084 35.538 87.4764 34.986C87.8751 34.434 88.3197 33.9587 88.8104 33.56H88.8564L88.7644 33.468C88.8564 33.3453 88.9944 33.1613 89.1784 32.916C89.3624 32.6707 89.4697 32.4713 89.5004 32.318C89.5311 32.2873 89.5464 32.226 89.5464 32.134C89.5464 32.0727 89.5617 32.0267 89.5924 31.996C89.6537 31.8427 89.7457 31.766 89.8684 31.766C89.9911 31.766 90.0524 31.8427 90.0524 31.996C90.0524 32.088 90.0371 32.1493 90.0064 32.18C90.0064 32.4867 89.8684 32.9313 89.5924 33.514C89.3471 34.066 89.0557 34.4033 88.7184 34.526V34.664C88.5651 34.8173 88.4117 35.032 88.2584 35.308C88.0437 35.584 87.7371 35.9673 87.3384 36.458C86.9704 36.9487 86.6637 37.194 86.4184 37.194L85.7744 37.608V37.792C85.7744 37.9453 85.6824 38.0527 85.4984 38.114C85.3757 38.2673 85.2224 38.3287 85.0384 38.298C84.9464 38.482 84.7931 38.6047 84.5784 38.666C84.4864 38.6967 84.3484 38.7733 84.1644 38.896C84.1031 38.988 83.9497 39.08 83.7044 39.172C83.4897 39.264 83.3364 39.3253 83.2444 39.356C83.0911 39.4787 82.9071 39.5553 82.6924 39.586C82.4777 39.586 82.2937 39.586 82.1404 39.586H81.1284ZM92.6349 41.426C92.4815 41.426 92.3282 41.38 92.1749 41.288C92.0215 41.196 91.8682 41.1193 91.7149 41.058C90.9175 40.598 90.3809 39.9847 90.1049 39.218C89.8595 38.4207 89.7369 37.608 89.7369 36.78C89.7369 35.6147 89.8749 34.4493 90.1509 33.284C90.4269 32.1187 90.7335 30.9687 91.0709 29.834C91.7455 27.5033 92.6042 25.2647 93.6469 23.118C94.6895 20.9407 95.8855 18.84 97.2349 16.816C97.4495 16.4787 97.6642 16.1567 97.8789 15.85C98.1242 15.5433 98.3695 15.2367 98.6149 14.93C98.8602 14.6233 99.0902 14.3167 99.3049 14.01C99.5195 13.6727 99.7342 13.366 99.9489 13.09L100.593 12.262C100.716 12.1393 100.823 12.0167 100.915 11.894C101.007 11.7407 101.099 11.6027 101.191 11.48C101.252 11.296 101.283 11.158 101.283 11.066C101.252 10.974 101.237 10.836 101.237 10.652C101.237 10.3453 101.436 9.99267 101.835 9.594C102.019 9.41 102.172 9.25666 102.295 9.134C102.448 8.98066 102.571 8.84266 102.663 8.72C102.847 8.50533 103.016 8.27533 103.169 8.03C103.353 7.78467 103.522 7.53933 103.675 7.294C103.828 7.04867 103.982 6.80333 104.135 6.558C104.319 6.31267 104.488 6.08267 104.641 5.868C104.856 5.62266 105.07 5.37733 105.285 5.132C105.5 4.856 105.714 4.61067 105.929 4.396C106.144 4.15066 106.343 3.90533 106.527 3.66C106.742 3.41467 106.926 3.13867 107.079 2.832C107.6 2.95467 108.137 3.12333 108.689 3.338C109.241 3.55267 109.701 3.82867 110.069 4.166C110.468 4.50333 110.667 4.96333 110.667 5.546C110.667 5.76067 110.575 5.99066 110.391 6.236C109.747 6.91067 109.057 7.55467 108.321 8.168C107.922 8.47466 107.554 8.79667 107.217 9.134C106.88 9.47133 106.558 9.80867 106.251 10.146C105.3 11.1887 104.319 12.446 103.307 13.918C102.295 15.3593 101.344 16.8467 100.455 18.38C99.5655 19.9133 98.8295 21.324 98.2469 22.612L98.0169 22.98L97.6489 23.21V22.934L97.7409 22.612C97.5569 22.9187 97.3882 23.2253 97.2349 23.532C97.0815 23.8387 96.9282 24.1607 96.7749 24.498L95.8089 26.476C95.5329 27.028 95.2569 27.5953 94.9809 28.178C94.7355 28.7607 94.5362 29.3587 94.3829 29.972C94.3522 30.064 94.3369 30.1713 94.3369 30.294C94.3369 30.4473 94.3215 30.57 94.2909 30.662C94.2909 30.846 94.1835 30.938 93.9689 30.938C93.8462 30.938 93.7849 30.8767 93.7849 30.754C93.7849 30.294 93.9075 29.8187 94.1529 29.328C94.1222 29.3587 94.0915 29.4047 94.0609 29.466C94.0302 29.4967 93.9842 29.5273 93.9229 29.558C93.8615 29.4353 93.8309 29.3587 93.8309 29.328V29.282C93.8309 28.8833 93.8922 28.4693 94.0149 28.04C93.8615 28.1933 93.7695 28.3467 93.7389 28.5C93.6775 28.7147 93.6009 28.9447 93.5089 29.19C93.4475 29.4047 93.3555 29.6347 93.2329 29.88C93.1102 30.0947 93.0182 30.3247 92.9569 30.57C92.8955 30.7847 92.8342 30.9993 92.7729 31.214L92.4969 32.732C92.4662 32.9773 92.4202 33.238 92.3589 33.514C92.2975 33.7593 92.2362 34.0047 92.1749 34.25C92.0215 35.078 91.9449 35.86 91.9449 36.596C91.9449 36.6573 91.9449 36.734 91.9449 36.826C91.9449 36.918 91.9602 37.01 91.9909 37.102C92.0215 37.194 92.0369 37.286 92.0369 37.378C92.0369 37.47 92.0522 37.5773 92.0829 37.7L92.2209 38.206C92.2515 38.2673 92.2669 38.344 92.2669 38.436C92.2669 38.528 92.2822 38.6047 92.3129 38.666C92.3742 38.5127 92.5122 38.4207 92.7269 38.39V38.62C92.8495 38.7427 92.9415 38.85 93.0029 38.942C93.0949 39.034 93.2175 39.08 93.3709 39.08C93.8002 39.08 94.2449 38.8807 94.7049 38.482C95.1649 38.0833 95.5942 37.6233 95.9929 37.102C96.3915 36.5807 96.6829 36.1513 96.8669 35.814C96.9895 35.6607 97.1122 35.5073 97.2349 35.354C97.3575 35.2007 97.4802 35.0627 97.6029 34.94C97.7562 34.8173 97.8789 34.6793 97.9709 34.526C98.0935 34.3727 98.2162 34.2193 98.3389 34.066C98.9829 33.0847 99.5809 32.1187 100.133 31.168C100.194 31.0453 100.256 30.938 100.317 30.846C100.378 30.754 100.44 30.6773 100.501 30.616L100.869 30.248C101.053 30.064 101.176 29.972 101.237 29.972C101.329 29.972 101.375 30.0333 101.375 30.156C101.375 30.1867 101.298 30.386 101.145 30.754C100.992 31.122 100.854 31.3827 100.731 31.536L100.777 31.582C100.44 32.0727 100.118 32.5633 99.8109 33.054C99.5042 33.5447 99.2282 34.0507 98.9829 34.572C98.7375 35.0933 98.4615 35.5993 98.1549 36.09C97.8789 36.5807 97.5722 37.0713 97.2349 37.562C96.9282 38.022 96.6215 38.528 96.3149 39.08C96.0082 39.6013 95.6709 40.0613 95.3029 40.46C94.9655 40.8893 94.5209 41.15 93.9689 41.242C93.9075 41.2727 93.8309 41.288 93.7389 41.288C93.6469 41.288 93.5702 41.288 93.5089 41.288H93.0489C92.9262 41.38 92.7882 41.426 92.6349 41.426ZM96.0849 23.394C96.2075 23.2713 96.2995 23.1487 96.3609 23.026C96.4529 22.8727 96.5295 22.7193 96.5909 22.566C96.7442 22.3513 96.8822 22.1367 97.0049 21.922C97.1275 21.7073 97.2502 21.4927 97.3729 21.278H97.4189L97.4649 21.094C97.3729 21.094 97.2502 21.232 97.0969 21.508C97.0355 21.6613 96.9742 21.8147 96.9129 21.968C96.8515 22.0907 96.7902 22.2133 96.7289 22.336L96.3149 23.026L96.0849 23.394ZM94.6129 26.154C94.2449 26.6753 94.0609 27.2427 94.0609 27.856C94.2449 27.2427 94.5055 26.6907 94.8429 26.2L95.3489 25.418C95.4715 25.2033 95.5635 24.912 95.6249 24.544L95.5789 24.498C95.2722 25.0807 94.9502 25.6327 94.6129 26.154ZM94.3829 28.822C94.4442 28.6993 94.4749 28.638 94.4749 28.638C94.6282 28.3007 94.7509 27.9787 94.8429 27.672C94.9655 27.3653 95.0422 27.0587 95.0729 26.752C95.0422 27.028 94.9195 27.396 94.7049 27.856C94.4902 28.2547 94.3829 28.5767 94.3829 28.822ZM114.238 41.15C113.625 41.15 113.012 41.012 112.398 40.736C111.785 40.46 111.31 40.0307 110.972 39.448C110.604 38.7733 110.282 38.1293 110.006 37.516C109.73 36.872 109.592 36.1513 109.592 35.354C109.592 34.8633 109.623 34.388 109.684 33.928C109.776 33.468 109.868 33.008 109.96 32.548C110.022 32.3027 110.144 31.996 110.328 31.628C110.543 31.2293 110.727 30.9073 110.88 30.662C111.003 30.5087 111.064 30.34 111.064 30.156H111.432C111.34 30.6467 111.233 31.1067 111.11 31.536C111.018 31.9347 110.896 32.3487 110.742 32.778C110.62 33.2073 110.512 33.6367 110.42 34.066C110.359 34.4647 110.328 34.8787 110.328 35.308C110.328 35.492 110.344 35.722 110.374 35.998C110.405 36.274 110.466 36.4887 110.558 36.642C110.712 36.8873 110.865 37.1327 111.018 37.378C111.202 37.6233 111.386 37.8687 111.57 38.114C111.877 38.6047 112.337 38.85 112.95 38.85C113.042 38.85 113.211 38.8347 113.456 38.804C113.702 38.7733 113.84 38.6813 113.87 38.528H114.192C114.438 38.528 114.668 38.4667 114.882 38.344C115.128 38.2213 115.358 38.0987 115.572 37.976C117.32 36.9947 118.854 35.7833 120.172 34.342C121.491 32.9007 122.656 31.3213 123.668 29.604C124.68 27.856 125.6 26.0773 126.428 24.268C126.551 23.9613 126.674 23.6393 126.796 23.302C126.95 22.9647 127.103 22.6273 127.256 22.29C127.563 21.646 127.716 20.956 127.716 20.22C127.716 20.0667 127.701 19.898 127.67 19.714C127.64 19.4993 127.563 19.346 127.44 19.254C127.41 19.2233 127.333 19.208 127.21 19.208C126.934 19.208 126.612 19.346 126.244 19.622C125.907 19.898 125.554 20.22 125.186 20.588C125.002 20.772 124.711 21.048 124.312 21.416C123.944 21.7533 123.622 21.9527 123.346 22.014V22.106C123.07 22.5967 122.733 23.026 122.334 23.394C122.12 23.6087 121.905 23.8233 121.69 24.038C121.506 24.222 121.338 24.4213 121.184 24.636C120.326 25.6787 119.406 26.9207 118.424 28.362C117.474 29.7727 116.707 31.076 116.124 32.272C115.91 32.6707 115.772 33.0693 115.71 33.468C115.618 33.8973 115.373 34.2653 114.974 34.572L114.56 34.618L112.996 33.422L112.674 32.456L112.858 32.364C112.828 32.272 112.812 32.1033 112.812 31.858V31.352C112.812 30.5547 112.95 29.8187 113.226 29.144C113.533 28.4693 113.855 27.7793 114.192 27.074C114.714 25.8473 115.266 24.6513 115.848 23.486C116.462 22.29 117.167 21.1553 117.964 20.082C118.118 19.898 118.256 19.7293 118.378 19.576C118.532 19.392 118.654 19.208 118.746 19.024C118.808 18.9013 118.869 18.794 118.93 18.702C118.992 18.5793 119.038 18.472 119.068 18.38C119.099 18.2267 119.222 18.0427 119.436 17.828C119.528 17.7053 119.62 17.598 119.712 17.506C119.804 17.414 119.896 17.322 119.988 17.23C120.142 17.0767 120.218 16.8467 120.218 16.54C121.077 15.5587 121.951 14.516 122.84 13.412C123.73 12.308 124.573 11.25 125.37 10.238C125.677 9.83933 125.984 9.47133 126.29 9.134C126.597 8.766 126.919 8.42867 127.256 8.122C127.594 7.81533 127.916 7.49333 128.222 7.156C128.529 6.81867 128.82 6.466 129.096 6.098C129.832 5.14733 130.63 4.258 131.488 3.43C132.347 2.57133 133.16 1.71267 133.926 0.853999C134.264 0.884666 134.678 1.00733 135.168 1.222C135.69 1.43667 136.134 1.71267 136.502 2.05C136.901 2.35666 137.1 2.70933 137.1 3.108C137.1 3.476 136.87 3.844 136.41 4.212C135.981 4.54933 135.506 4.88667 134.984 5.224C134.739 5.37733 134.494 5.53066 134.248 5.684C134.003 5.83733 133.788 5.99066 133.604 6.144C133.175 6.48133 132.96 6.788 132.96 7.064H132.454V6.926L132.316 7.064L132.546 7.248C131.964 7.64666 131.427 8.13733 130.936 8.72C130.446 9.272 130.032 9.80866 129.694 10.33C129.541 10.422 129.449 10.5293 129.418 10.652C129.388 10.7133 129.357 10.79 129.326 10.882C129.296 10.9433 129.265 11.0047 129.234 11.066C129.173 11.1887 129.066 11.3113 128.912 11.434C128.79 11.526 128.606 11.6027 128.36 11.664C128.483 11.3267 128.59 11.112 128.682 11.02C128.713 10.9893 128.759 10.9127 128.82 10.79L128.13 11.526C127.824 11.8633 127.502 12.216 127.164 12.584C126.858 12.9213 126.536 13.274 126.198 13.642C125.892 13.9793 125.585 14.3013 125.278 14.608C125.002 14.9147 124.742 15.206 124.496 15.482C124.22 15.7887 123.99 16.0187 123.806 16.172C123.622 16.3253 123.5 16.4327 123.438 16.494C123.346 16.862 123.162 17.1533 122.886 17.368C122.733 17.4907 122.595 17.6287 122.472 17.782C122.35 17.9047 122.227 18.0273 122.104 18.15C121.583 18.794 121.092 19.4227 120.632 20.036C120.387 20.3427 120.126 20.6647 119.85 21.002C119.605 21.3393 119.36 21.6767 119.114 22.014C119.084 21.9833 119.053 21.968 119.022 21.968C118.992 21.968 118.961 21.9527 118.93 21.922C118.838 21.922 118.777 21.9067 118.746 21.876C118.44 22.1827 118.21 22.566 118.056 23.026C117.903 23.486 117.612 23.7467 117.182 23.808C117.182 24.0533 117.121 24.314 116.998 24.59L117.274 24.498C117.213 24.774 117.09 25.0347 116.906 25.28C116.753 25.5253 116.554 25.6787 116.308 25.74C116.308 25.9547 116.278 26.154 116.216 26.338L116.078 26.66L115.848 27.258L115.71 27.672L115.572 28.132C115.45 28.5 115.327 28.868 115.204 29.236C115.082 29.604 114.959 29.972 114.836 30.34L114.698 30.938C114.637 31.1833 114.576 31.398 114.514 31.582C114.453 31.7353 114.376 31.8887 114.284 32.042L114.422 32.502L114.56 32.18C114.591 32.0573 114.622 31.9653 114.652 31.904C114.714 31.812 114.76 31.7353 114.79 31.674C115.158 31.03 115.603 30.2633 116.124 29.374C116.646 28.454 117.182 27.5187 117.734 26.568C118.317 25.6173 118.854 24.7893 119.344 24.084C120.234 22.8267 121.2 21.6767 122.242 20.634C123.316 19.5607 124.45 18.748 125.646 18.196C125.677 18.1653 125.723 18.15 125.784 18.15C125.784 18.15 125.784 18.1347 125.784 18.104C125.784 18.0733 125.8 18.0427 125.83 18.012L126.106 18.104C126.26 17.9507 126.459 17.874 126.704 17.874C126.98 17.8433 127.195 17.828 127.348 17.828C128.238 17.828 128.836 18.196 129.142 18.932C129.48 19.6373 129.648 20.3733 129.648 21.14C129.648 21.7227 129.587 22.4127 129.464 23.21C129.372 23.9767 129.219 24.6207 129.004 25.142C128.974 25.2953 128.912 25.418 128.82 25.51C128.759 25.6327 128.728 25.8013 128.728 26.016C128.544 26.1387 128.376 26.3533 128.222 26.66C128.1 26.9667 128.038 27.2427 128.038 27.488C127.946 27.5187 127.87 27.5953 127.808 27.718L127.67 28.04C127.64 28.1627 127.594 28.2853 127.532 28.408C127.471 28.5 127.318 28.546 127.072 28.546C127.042 28.8527 126.965 29.1593 126.842 29.466C126.75 29.7727 126.566 29.88 126.29 29.788L126.336 29.834V30.11L126.106 30.616L125.554 30.708C125.432 30.8613 125.263 31.1067 125.048 31.444C124.834 31.7507 124.696 31.9807 124.634 32.134C124.726 32.2567 124.772 32.3947 124.772 32.548C124.772 32.8547 124.619 33.1613 124.312 33.468C124.006 33.7747 123.776 34.0507 123.622 34.296C123.469 34.5413 123.392 34.7253 123.392 34.848L122.978 34.94C122.886 35.1853 122.748 35.2927 122.564 35.262H122.426C122.12 36.0287 121.844 36.4887 121.598 36.642L121.138 36.964C120.862 37.148 120.648 37.332 120.494 37.516C120.341 37.7 120.188 37.93 120.034 38.206C119.973 38.3287 119.896 38.4513 119.804 38.574C119.743 38.6967 119.666 38.8193 119.574 38.942C119.206 39.3407 118.7 39.7087 118.056 40.046C117.443 40.3833 116.784 40.644 116.078 40.828C115.404 41.0427 114.79 41.15 114.238 41.15ZM121.598 18.058L121.92 17.782L121.874 17.644L121.598 18.058ZM120.54 19.438V19.392L120.632 19.3L120.586 19.208V19.162L120.678 19.07L120.586 18.978L120.494 19.346H120.448L120.54 19.438ZM119.574 20.726L119.62 20.634L119.712 20.726V20.588C119.712 20.5573 119.728 20.5267 119.758 20.496L119.85 20.358C119.912 20.358 119.942 20.3273 119.942 20.266L119.804 20.312V20.22L119.574 20.588V20.726ZM114.79 27.948L114.882 27.902H114.836L114.974 27.488L114.928 27.58C114.867 27.7947 114.821 27.9173 114.79 27.948ZM126.934 27.856L127.026 27.626H127.118V27.58H127.072L127.026 27.626H126.934L126.796 27.718L126.934 27.856ZM114.56 28.592L114.376 28.5L114.238 29.42H114.284C114.284 29.3587 114.315 29.2207 114.376 29.006C114.438 28.7913 114.499 28.6533 114.56 28.592ZM114.284 29.512V29.466L114.238 29.42L114.284 29.512ZM127.956 55.088C127.741 55.088 127.511 54.95 127.266 54.674C127.082 54.398 126.898 54.1373 126.714 53.892C126.499 53.5853 126.392 53.2633 126.392 52.926C128.14 50.35 130.056 47.912 132.142 45.612C134.258 43.312 136.466 41.15 138.766 39.126C139.563 37.5007 140.345 35.906 141.112 34.342C141.909 32.7473 142.706 31.1527 143.504 29.558L142.4 30.846C142.032 31.306 141.648 31.7353 141.25 32.134C141.127 32.226 140.989 32.3487 140.836 32.502C140.682 32.6247 140.529 32.7627 140.376 32.916L139.64 33.744C139.517 33.8667 139.41 34.0047 139.318 34.158C139.226 34.3113 139.134 34.4647 139.042 34.618C138.95 34.7713 138.781 34.94 138.536 35.124C138.413 35.216 138.29 35.308 138.168 35.4C138.045 35.492 137.907 35.5993 137.754 35.722C137.631 35.8447 137.493 35.952 137.34 36.044C137.217 36.136 137.094 36.228 136.972 36.32C136.849 36.4427 136.726 36.55 136.604 36.642C136.481 36.7033 136.389 36.7647 136.328 36.826C136.205 36.9487 136.067 37.0713 135.914 37.194C135.791 37.286 135.653 37.4087 135.5 37.562C135.193 37.8687 134.856 38.022 134.488 38.022C133.936 38.022 133.522 37.7307 133.246 37.148C133 36.5347 132.878 35.9827 132.878 35.492C132.878 34.7867 133.016 34.0967 133.292 33.422C133.414 33.0847 133.537 32.7473 133.66 32.41C133.782 32.0727 133.905 31.7353 134.028 31.398L135.96 26.246C136.113 25.9087 136.266 25.556 136.42 25.188C136.604 24.82 136.788 24.452 136.972 24.084C137.34 23.3787 137.524 22.6273 137.524 21.83C137.524 21.738 137.539 21.6613 137.57 21.6C137.57 21.5693 137.539 21.5233 137.478 21.462C137.324 21.6153 137.14 21.7687 136.926 21.922C136.742 22.0447 136.542 22.1673 136.328 22.29C135.929 22.5047 135.561 22.8113 135.224 23.21C134.426 24.1607 133.706 25.1573 133.062 26.2C132.418 27.212 131.789 28.2393 131.176 29.282C131.114 29.4047 131.007 29.5427 130.854 29.696C130.731 29.8493 130.593 29.926 130.44 29.926C130.256 29.926 130.164 29.8187 130.164 29.604C130.164 29.2667 130.348 28.8373 130.716 28.316C131.084 27.764 131.329 27.2887 131.452 26.89C131.605 26.5527 131.774 26.3073 131.958 26.154C132.05 26.0927 132.126 26.016 132.188 25.924C132.28 25.8013 132.356 25.6787 132.418 25.556C132.724 24.912 133.184 24.1913 133.798 23.394C134.411 22.566 135.101 21.8607 135.868 21.278C136.665 20.6647 137.416 20.358 138.122 20.358C138.827 20.358 139.348 20.6033 139.686 21.094C140.023 21.5847 140.192 22.1367 140.192 22.75C140.192 23.3633 140.115 23.992 139.962 24.636C139.808 25.2493 139.64 25.832 139.456 26.384C139.517 26.4453 139.548 26.568 139.548 26.752C139.548 27.0587 139.456 27.3347 139.272 27.58C139.057 27.8253 138.934 28.086 138.904 28.362C138.781 29.006 138.628 29.4967 138.444 29.834C138.26 30.1407 138.014 30.5547 137.708 31.076C137.769 31.2293 137.677 31.5667 137.432 32.088C137.186 32.6093 137.018 32.9773 136.926 33.192C136.834 33.4067 136.757 33.606 136.696 33.79C136.634 33.974 136.573 34.1733 136.512 34.388V34.618C136.481 34.6793 136.466 34.756 136.466 34.848C136.558 34.7867 136.634 34.7253 136.696 34.664C136.788 34.6027 136.849 34.5567 136.88 34.526C136.972 34.434 137.064 34.3573 137.156 34.296C137.278 34.2347 137.401 34.1733 137.524 34.112C137.554 34.0813 137.585 34.066 137.616 34.066C137.646 34.066 137.677 34.0507 137.708 34.02C137.738 33.7133 137.907 33.56 138.214 33.56C138.275 33.5293 138.336 33.4987 138.398 33.468C138.459 33.4067 138.52 33.3607 138.582 33.33C138.704 33.2073 138.796 33.1307 138.858 33.1C138.98 32.7933 139.149 32.5787 139.364 32.456C139.456 32.3947 139.548 32.3333 139.64 32.272C139.762 32.18 139.885 32.1033 140.008 32.042L141.526 30.478C141.648 30.3247 141.74 30.1867 141.802 30.064C141.894 29.9107 141.955 29.788 141.986 29.696C142.047 29.5427 142.308 29.3433 142.768 29.098L142.998 28.776V28.454C142.998 28.3007 143.013 28.1627 143.044 28.04C143.074 27.9173 143.166 27.8253 143.32 27.764C143.504 27.672 143.626 27.5033 143.688 27.258C143.749 26.982 143.826 26.798 143.918 26.706L144.746 25.602C144.807 25.4487 144.853 25.3567 144.884 25.326L145.16 25.05V25.004C145.16 24.9427 145.144 24.8967 145.114 24.866C145.052 24.8047 145.022 24.7433 145.022 24.682C145.022 24.59 145.068 24.544 145.16 24.544L145.344 24.406C145.681 24.4367 146.064 24.5133 146.494 24.636C146.954 24.728 147.184 25.004 147.184 25.464C147.184 25.5253 147.168 25.6173 147.138 25.74C147.138 25.8627 147.122 26.0007 147.092 26.154C147.061 27.166 146.846 28.178 146.448 29.19C146.233 29.6807 146.034 30.1713 145.85 30.662C145.666 31.1527 145.482 31.6587 145.298 32.18C145.144 32.64 144.991 33.1 144.838 33.56C144.684 34.02 144.531 34.4953 144.378 34.986C145.052 34.4033 145.758 33.882 146.494 33.422C147.23 32.962 147.996 32.5327 148.794 32.134C149.039 31.95 149.284 31.858 149.53 31.858C149.652 31.858 149.714 31.9193 149.714 32.042C149.714 32.134 149.591 32.2567 149.346 32.41L148.84 32.778C148.134 33.1767 147.46 33.606 146.816 34.066C146.202 34.526 145.589 35.0167 144.976 35.538C144.761 35.6913 144.546 35.86 144.332 36.044C144.117 36.228 143.918 36.412 143.734 36.596C143.58 36.7493 143.442 36.9487 143.32 37.194C143.197 37.47 143.059 37.7153 142.906 37.93C142.844 38.022 142.783 38.114 142.722 38.206C142.66 38.298 142.614 38.4053 142.584 38.528C142.553 38.7427 142.461 38.9727 142.308 39.218C142.185 39.4327 142.062 39.632 141.94 39.816C141.848 40 141.756 40.1993 141.664 40.414C141.541 40.598 141.434 40.782 141.342 40.966C141.25 41.15 141.142 41.3493 141.02 41.564C140.958 41.6253 140.882 41.7173 140.79 41.84C140.698 41.9627 140.606 42.116 140.514 42.3C140.391 42.4533 140.299 42.5913 140.238 42.714C140.176 42.8673 140.115 42.9747 140.054 43.036C139.87 43.3733 139.67 43.6647 139.456 43.91C139.272 44.1553 139.118 44.278 138.996 44.278H138.858C138.858 44.186 138.888 44.0787 138.95 43.956C138.98 43.8947 139.011 43.818 139.042 43.726C139.072 43.6647 139.103 43.6033 139.134 43.542C139.379 43.1433 139.67 42.6527 140.008 42.07C140.376 41.4873 140.56 41.0733 140.56 40.828C140.56 40.7667 140.529 40.736 140.468 40.736L140.1 41.288C139.854 41.4413 139.686 41.6407 139.594 41.886L139.18 42.576L137.524 45.198C137.554 45.2287 137.57 45.2747 137.57 45.336C137.57 45.428 137.554 45.4893 137.524 45.52C137.493 45.5507 137.478 45.5813 137.478 45.612C137.478 45.6427 137.462 45.6733 137.432 45.704L137.34 45.796C137.217 45.9187 137.156 46.0873 137.156 46.302V46.348C137.186 46.3787 137.202 46.4093 137.202 46.44C137.202 46.5627 137.14 46.6393 137.018 46.67C136.834 46.7313 136.742 46.762 136.742 46.762L136.65 46.808C136.588 46.992 136.481 47.1607 136.328 47.314C136.266 47.4673 136.144 47.682 135.96 47.958C135.806 48.234 135.638 48.3567 135.454 48.326C135.147 48.694 134.856 49.0927 134.58 49.522C134.304 49.9513 134.074 50.396 133.89 50.856C133.89 50.8867 133.905 50.9173 133.936 50.948V51.04C133.936 51.1627 133.859 51.224 133.706 51.224H133.568L133.43 51.178L133.384 51.132C133.353 51.132 133.322 51.1167 133.292 51.086C133.23 51.4233 133.062 51.6533 132.786 51.776C132.694 51.96 132.571 52.0827 132.418 52.144C132.295 52.1747 132.142 52.282 131.958 52.466H131.912C131.85 52.5887 131.743 52.7113 131.59 52.834C131.436 52.9567 131.298 53.0333 131.176 53.064L131.13 53.11H131.038L130.946 53.156C130.854 53.3093 130.7 53.4473 130.486 53.57C130.302 53.6927 130.133 53.7847 129.98 53.846C129.888 53.9993 129.704 54.1987 129.428 54.444C129.182 54.72 128.983 54.858 128.83 54.858H128.646C128.4 55.0113 128.17 55.088 127.956 55.088ZM128.462 52.926C128.646 52.8647 128.83 52.8033 129.014 52.742C129.198 52.6807 129.366 52.5733 129.52 52.42C129.796 52.1747 130.21 51.7453 130.762 51.132C131.314 50.5493 131.896 49.89 132.51 49.154C133.123 48.418 133.675 47.7587 134.166 47.176C134.595 46.5933 135.055 45.9493 135.546 45.244C136.067 44.5693 136.527 43.91 136.926 43.266C137.324 42.6527 137.554 42.1773 137.616 41.84C137.156 42.3 136.711 42.7447 136.282 43.174C135.852 43.634 135.408 44.0787 134.948 44.508C133.997 45.428 133.077 46.394 132.188 47.406C131.666 48.0193 131.176 48.648 130.716 49.292C130.256 49.936 129.811 50.58 129.382 51.224C129.198 51.5 129.014 51.7607 128.83 52.006C128.584 52.282 128.446 52.5733 128.416 52.88C128.446 52.88 128.462 52.8953 128.462 52.926Z" fill="#CD1A40"/>
</svg>
